<?xml version="1.0" encoding="UTF-8"?>
<svg version="1.1" xmlns="http://www.w3.org/2000/svg" width="352" height="340">
<path d="M0 0 C7.875 6.75 7.875 6.75 11.3344574 10.21420288 C12.51004463 11.38772812 12.51004463 11.38772812 13.7093811 12.58496094 C14.54448212 13.42365723 15.37958313 14.26235352 16.23999023 15.12646484 C17.13834091 16.02466949 18.03669159 16.92287415 18.96226501 17.84829712 C21.40616461 20.29191178 23.84698562 22.73858008 26.28723407 25.18584013 C28.84520673 27.75009724 31.40604351 30.31149091 33.96656799 32.87319946 C38.8061678 37.71589765 43.64321453 42.5611375 48.47933203 47.40731299 C53.98888809 52.92807673 59.50131047 58.44597472 65.01396644 63.96364284 C76.34581961 75.30592656 87.67409718 86.65177445 99 98 C102.35461648 96.5423485 104.54607187 94.699209 107.11882019 92.11495972 C107.93063248 91.3044516 108.74244476 90.49394348 109.57885742 89.65887451 C110.46057617 88.76839417 111.34229492 87.87791382 112.25073242 86.96044922 C113.19506307 86.01391663 114.13984285 85.06783194 115.08503723 84.12216187 C117.11668226 82.08758651 119.14513387 80.04989833 121.17116356 78.00973129 C124.37177939 74.78684866 127.57946919 71.57106988 130.78816223 68.35623169 C135.85866951 63.27434924 140.92447921 58.18781361 145.98826343 53.09923279 C155.06716343 43.97595952 164.15171125 34.85831807 173.24142915 25.74582303 C176.43338359 22.54543778 179.62250797 19.34226585 182.80941999 16.13685966 C184.31173913 14.62648347 185.81516023 13.11721469 187.31907654 11.60842896 C189.15721911 9.76422575 190.99352584 7.91819038 192.82772827 6.07006836 C193.63108109 5.26519989 194.4344339 4.46033142 195.26213074 3.631073 C195.96395068 2.92573362 196.66577063 2.22039425 197.38885784 1.49368095 C199 0 199 0 200 0 C200 66 200 132 200 200 C195.92958227 196.51107052 192.09751094 193.22242739 188.34985352 189.46337891 C187.50951065 188.62296051 186.66916779 187.78254211 185.80335999 186.91665649 C184.92079025 186.02892548 184.03822052 185.14119446 183.12890625 184.2265625 C181.74541237 182.8409462 181.74541237 182.8409462 180.33396912 181.42733765 C177.90366186 178.99324569 175.47637504 176.55616403 173.04974365 174.1184082 C170.56430636 171.6226689 168.07597068 169.12982292 165.58789062 166.63671875 C160.72244904 161.7606114 155.86019802 156.88133369 151 152 C147.38307227 153.52897576 145.0796478 155.67815633 142.32324219 158.44970703 C141.40258972 159.37051056 140.48193726 160.29131409 139.53338623 161.24002075 C138.5377747 162.24584465 137.54227352 163.2517778 136.546875 164.2578125 C135.52169807 165.28672149 134.49607725 166.31518837 133.47003174 167.3432312 C130.77606836 170.04481581 128.08816632 172.75235341 125.40148926 175.46118164 C122.65671696 178.22644489 119.90624528 180.98602633 117.15625 183.74609375 C111.76524427 189.15852274 106.38063036 194.57725438 101 200 C97.38307227 198.47102424 95.0796478 196.32184367 92.32324219 193.55029297 C91.40258972 192.62948944 90.48193726 191.70868591 89.53338623 190.75997925 C88.5377747 189.75415535 87.54227352 188.7482222 86.546875 187.7421875 C85.52169807 186.71327851 84.49607725 185.68481163 83.47003174 184.6567688 C80.77606836 181.95518419 78.08816632 179.24764659 75.40148926 176.53881836 C72.65671696 173.77355511 69.90624528 171.01397367 67.15625 168.25390625 C61.76524427 162.84147726 56.38063036 157.42274562 51 152 C47.38370633 153.52782038 45.08950756 155.6738405 42.33911133 158.44970703 C41.42168655 159.37051056 40.50426178 160.29131409 39.55903625 161.24002075 C38.56666843 162.24591896 37.57433422 163.25185032 36.58203125 164.2578125 C35.55932293 165.28679301 34.53609657 166.31525888 33.51237488 167.3432312 C30.82389608 170.04499176 28.14104927 172.75227029 25.45977783 175.46118164 C21.15862226 179.80552566 16.85064702 184.14308253 12.53949547 188.47750473 C11.03198076 189.99527827 9.52790248 191.5163979 8.02412415 193.03787231 C7.11615585 193.95237152 6.20818756 194.86687073 5.27270508 195.80908203 C4.46980545 196.62023468 3.66690582 197.43138733 2.8396759 198.26712036 C1 200 1 200 0 200 C0 134 0 68 0 0 Z " fill="#6A07FE" transform="translate(76,0)"/>
<path d="M0 0 C7.875 6.75 7.875 6.75 11.37242126 10.25216675 C12.56062973 11.43831322 12.56062973 11.43831322 13.77284241 12.64842224 C14.61729416 13.49646927 15.46174591 14.3445163 16.33178711 15.21826172 C17.23989136 16.12621994 18.14799561 17.03417816 19.08361816 17.96965027 C21.55437636 20.4401235 24.02205581 22.91365083 26.48916316 25.38776922 C29.07516336 27.98005325 31.66402707 30.56947443 34.25257874 33.15921021 C39.14530237 38.0550324 44.03547296 42.95339636 48.92471462 47.85269558 C54.49472932 53.4339174 60.06760984 59.01227394 65.64072406 64.59040046 C77.09699112 76.05709847 88.54968266 87.52736069 100 99 C96.62010479 103.010697 93.20761917 106.91677888 89.48266602 110.61499023 C88.64482071 111.44953232 87.8069754 112.2840744 86.94374084 113.14390564 C86.05609543 114.02325272 85.16845001 114.90259979 84.25390625 115.80859375 C82.83356758 117.22314521 81.41323184 118.63769963 79.99306393 120.05242252 C77.01951542 123.01292119 74.04140774 125.96883317 71.06408691 128.92553711 C68.60716381 131.36579834 66.15128438 133.80708931 63.69798279 136.25099182 C61.86609267 138.07542552 60.03195639 139.89760762 58.19520569 141.71714783 C53.89916147 145.99631829 49.78331731 150.33980943 45.83280945 154.93788147 C42.05096681 159.19288342 37.97387019 163.16798999 33.9453125 167.1875 C32.9934965 168.13999117 32.04182885 169.09263062 31.09030151 170.04541016 C29.11357563 172.02359796 27.13508324 173.99999644 25.15527344 175.97509766 C22.61302134 178.51159829 20.07535932 181.05263678 17.5389576 183.59498596 C15.58316893 185.55437458 13.6250219 187.51139226 11.66613388 189.46768188 C10.27266315 190.86015993 8.88120852 192.25465457 7.48977661 193.64916992 C6.65155365 194.48424072 5.81333069 195.31931152 4.94970703 196.1796875 C4.2091507 196.91944824 3.46859436 197.65920898 2.70559692 198.42138672 C1 200 1 200 0 200 C0 134 0 68 0 0 Z " fill="#ED00BA" transform="translate(76,0)"/>
<path d="M0 0 C6.93 0 13.86 0 21 0 C23.85195276 5.8006682 26.70149978 11.60239003 29.54492188 17.40722656 C30.51355884 19.38285591 31.48360728 21.35779386 32.45507812 23.33203125 C33.84874499 26.16487246 35.23736744 29.00013659 36.625 31.8359375 C37.28121338 33.16569107 37.28121338 33.16569107 37.95068359 34.52230835 C38.35109863 35.34300812 38.75151367 36.16370789 39.1640625 37.00927734 C39.51936035 37.73319672 39.8746582 38.45711609 40.24072266 39.20297241 C41 41 41 41 41 43 C41.66 43 42.32 43 43 43 C43.24476074 42.18901855 43.48952148 41.37803711 43.74169922 40.54248047 C45.24829633 36.30097404 47.14592753 32.35394315 49.1328125 28.3203125 C49.72786087 27.10116653 49.72786087 27.10116653 50.33493042 25.85739136 C51.59478952 23.27819988 52.85980978 20.70157986 54.125 18.125 C54.98341568 16.36995927 55.84149227 14.61475265 56.69921875 12.859375 C58.79493171 8.5706626 60.89761357 4.28547052 63 0 C69.93 0 76.86 0 84 0 C84 27.72 84 55.44 84 84 C77.07 84 70.14 84 63 84 C62.67 70.8 62.34 57.6 62 44 C58.37 51.26 54.74 58.52 51 66 C45.06 66 39.12 66 33 66 C29.37 58.74 25.74 51.48 22 44 C21.67 57.2 21.34 70.4 21 84 C14.07 84 7.14 84 0 84 C0 56.28 0 28.56 0 0 Z " fill="#000000" transform="translate(0,254)"/>
<path d="M0 0 C5.3942324 4.44230903 8.54036062 10.57880972 9.26312256 17.53092957 C9.34508771 20.37944448 9.33767862 23.2131652 9.29296875 26.0625 C9.28872391 27.09439453 9.28447906 28.12628906 9.28010559 29.18945312 C9.26341801 32.45990967 9.22578395 35.72973217 9.1875 39 C9.17244036 41.22785563 9.1587542 43.455721 9.14648438 45.68359375 C9.11610888 51.12283198 9.05736748 56.56071284 9 62 C2.07 62 -4.86 62 -12 62 C-12.02578125 59.08671875 -12.0515625 56.1734375 -12.078125 53.171875 C-12.1165435 50.34869748 -12.16170434 47.52570273 -12.20751953 44.70263672 C-12.23573553 42.74146253 -12.25694694 40.78017449 -12.27099609 38.81884766 C-12.29241699 35.99843023 -12.33906209 33.17938257 -12.390625 30.359375 C-12.39185364 29.48319519 -12.39308228 28.60701538 -12.39434814 27.70428467 C-12.49175976 22.71530106 -12.49175976 22.71530106 -14.91088867 18.44604492 C-18.45607685 15.99213005 -20.76203702 16.52911522 -25 17 C-27.67431489 18.81163267 -27.95920359 19.87761077 -29 23 C-29.15434158 25.94717173 -29.2575603 28.87498865 -29.31640625 31.82421875 C-29.33718735 32.68561966 -29.35796844 33.54702057 -29.37937927 34.43452454 C-29.44474909 37.18543544 -29.50370132 39.93644156 -29.5625 42.6875 C-29.60569717 44.55274421 -29.64931185 46.4179788 -29.69335938 48.28320312 C-29.80120316 52.85537258 -29.90036991 57.42761462 -30 62 C-36.93 62 -43.86 62 -51 62 C-51 41.21 -51 20.42 -51 -1 C-44.07 -1 -37.14 -1 -30 -1 C-29.67 -0.01 -29.34 0.98 -29 2 C-27.39125 1.0409375 -27.39125 1.0409375 -25.75 0.0625 C-17.89545752 -4.62001571 -8.01980195 -4.25910386 0 0 Z " fill="#000000" transform="translate(342,276)"/>
<path d="M0 0 C6.2758456 5.00478827 10.22764212 11.01182832 11.15307617 19.11743164 C11.2897182 22.03490304 11.31008669 24.9311117 11.2890625 27.8515625 C11.3190332 29.31722656 11.3190332 29.31722656 11.34960938 30.8125 C11.34388952 39.41516077 9.49083044 46.83050669 3.6640625 53.3515625 C-3.94696453 60.29150973 -13.03883686 61.79344664 -23.01171875 61.6953125 C-31.92473607 61.07373221 -39.13412944 57.81114742 -45.3359375 51.3515625 C-50.96387943 44.29078497 -51.41681348 36.64369222 -51.5234375 27.9140625 C-51.53745605 27.12290039 -51.55147461 26.33173828 -51.56591797 25.51660156 C-51.50000524 17.36032419 -49.38910074 9.85034211 -44.1484375 3.4765625 C-31.97654108 -7.18663247 -13.7419444 -9.3620418 0 0 Z M-28.1484375 14.4765625 C-30.87907739 18.93018426 -30.55310653 23.3325585 -30.5859375 28.4140625 C-30.61880859 29.30802734 -30.65167969 30.20199219 -30.68554688 31.12304688 C-30.72335279 35.75255283 -30.68284266 37.79443559 -27.74609375 41.54296875 C-23.57316195 44.64913603 -21.39493614 44.67187423 -16.34375 44.0546875 C-13.86698349 43.59079974 -13.86698349 43.59079974 -11.6484375 41.1015625 C-9.12172774 36.67982042 -8.95822919 33.20151235 -8.8984375 28.1640625 C-8.87265625 26.86855469 -8.846875 25.57304687 -8.8203125 24.23828125 C-9.16953975 20.23464029 -10.04929089 17.87446169 -12.1484375 14.4765625 C-14.90212356 12.24384407 -16.63102374 11.54123922 -20.1484375 11.1015625 C-23.59845593 11.5328148 -25.41181413 12.34807765 -28.1484375 14.4765625 Z " fill="#000000" transform="translate(275.1484375,278.5234375)"/>
<path d="M0 0 C6.1157986 4.67991545 9.72975314 12.21481301 10.796875 19.75 C11.43626486 31.8861113 11.59905496 43.13066894 3.52734375 52.99609375 C-3.25588193 59.87119157 -11.18150908 61.7981169 -20.578125 62.0625 C-30.08321972 61.87569467 -38.42418249 59.75490726 -45.203125 52.75 C-50.67641409 44.78513901 -51.45830351 38.1697374 -51.578125 28.6875 C-51.61550781 27.59244141 -51.65289062 26.49738281 -51.69140625 25.36914062 C-51.78840299 16.32150031 -49.55864204 10.06423619 -44.015625 2.9375 C-30.99348374 -7.19083209 -14.44881313 -8.19790816 0 0 Z M-29.828125 16.83203125 C-31.66720417 20.73484982 -31.64431177 23.99198425 -31.578125 28.25 C-31.58972656 28.99636719 -31.60132812 29.74273437 -31.61328125 30.51171875 C-31.58366224 36.08996617 -30.41196442 39.46227346 -26.453125 43.5625 C-23.20140936 45.27868326 -20.82852338 45.13162088 -17.203125 44.75 C-13.36997636 43.04637838 -11.76857964 41.59019497 -10.203125 37.75 C-9.79653947 34.61332818 -9.8786445 31.47295529 -9.890625 28.3125 C-9.87451172 27.46623047 -9.85839844 26.61996094 -9.84179688 25.74804688 C-9.83803476 20.94382669 -10.02751211 17.61861235 -13.203125 13.75 C-19.53040668 10.25334433 -25.29011105 11.01770087 -29.828125 16.83203125 Z " fill="#000000" transform="translate(141.203125,278.25)"/>
<path d="M0 0 C0 33 0 66 0 100 C-4.10338418 96.48281356 -7.96284248 93.16189686 -11.74194336 89.37158203 C-13.03248878 88.08092331 -13.03248878 88.08092331 -14.34910583 86.76419067 C-15.25354935 85.85458588 -16.15799286 84.94498108 -17.08984375 84.0078125 C-18.04368954 83.05209752 -18.99775941 82.09660612 -19.95204163 81.1413269 C-22.44153194 78.64805084 -24.92800224 76.15178475 -27.41381836 73.65484619 C-29.95957994 71.09878491 -32.50823777 68.54561495 -35.05664062 65.9921875 C-40.04057069 60.99758981 -45.02131048 55.99982201 -50 51 C-48.46105711 47.34771612 -46.26576756 45.01804059 -43.47436523 42.23144531 C-42.78870987 41.54294243 -42.78870987 41.54294243 -42.08920288 40.8405304 C-40.58383542 39.33147141 -39.07141304 37.82971056 -37.55859375 36.328125 C-36.50973159 35.28045526 -35.46123917 34.23241525 -34.4131012 33.184021 C-32.21964316 30.99212481 -30.02287221 28.80362351 -27.82348633 26.61767578 C-24.99800935 23.80924065 -22.17921267 20.99421481 -19.36262417 18.17686844 C-17.20029455 16.01481 -15.03537443 13.85536183 -12.86955452 11.69680023 C-11.82869318 10.65912992 -10.7884442 9.620845 -9.74880791 8.58194733 C-8.30046944 7.13576484 -6.84845006 5.69327153 -5.39624023 4.25097656 C-4.5695433 3.42809143 -3.74284637 2.6052063 -2.89109802 1.75738525 C-1 0 -1 0 0 0 Z " fill="#0175FE" transform="translate(276,100)"/>
<path d="M0 0 C6.93 0 13.86 0 21 0 C21 5.61 21 11.22 21 17 C24.96 17 28.92 17 33 17 C33 22.28 33 27.56 33 33 C29.04 33 25.08 33 21 33 C21.495 47.355 21.495 47.355 22 62 C25.3 62.33 28.6 62.66 32 63 C32 68.61 32 74.22 32 80 C28.64495448 80.10851899 25.29346028 80.18756353 21.9375 80.25 C20.99455078 80.28351563 20.05160156 80.31703125 19.08007812 80.3515625 C12.81092451 80.43893746 8.94198984 80.0039561 4 76 C0.36941789 70.69518542 -0.5706105 65.87691804 -0.390625 59.5625 C-0.38496521 58.79695801 -0.37930542 58.03141602 -0.37347412 57.24267578 C-0.35130835 54.82777979 -0.30115539 52.41443777 -0.25 50 C-0.22990915 48.35028204 -0.21166294 46.70054052 -0.1953125 45.05078125 C-0.15150943 41.03326695 -0.08262602 37.01689574 0 33 C-2.64 33 -5.28 33 -8 33 C-8 27.72 -8 22.44 -8 17 C-5.36 17 -2.72 17 0 17 C0 11.39 0 5.78 0 0 Z " fill="#000000" transform="translate(160,258)"/>
<path d="M0 0 C6.93 0 13.86 0 21 0 C21 20.79 21 41.58 21 63 C14.07 63 7.14 63 0 63 C0 42.21 0 21.42 0 0 Z " fill="#000000" transform="translate(198,275)"/>
<path d="M0 0 C3.93173952 3.05801962 5.09490346 4.54800179 5.75 9.625 C5.58014463 14.40776952 3.65087383 16.50730635 0.25 19.75 C-4.54372479 21.34790826 -8.35189122 21.30396763 -13.0625 19.4375 C-15.75 17.75 -15.75 17.75 -17.75 14.75 C-18.36062414 10.51528193 -18.16712578 6.78183746 -16.5625 2.8125 C-12.26508921 -2.07765711 -5.80782975 -2.63992262 0 0 Z " fill="#000000" transform="translate(214.75,249.25)"/>
</svg>
